<svg width="279" height="237" viewBox="0 0 279 237" fill="none" xmlns="http://www.w3.org/2000/svg">
<path d="M214.218 107.046L220.341 110.837L221.504 108.937C221.673 108.666 221.913 108.448 222.199 108.307C222.485 108.165 222.805 108.106 223.122 108.137C223.476 108.137 223.836 108.175 224.196 108.169C224.514 108.159 224.827 108.238 225.102 108.397C225.376 108.556 225.601 108.789 225.75 109.069L226.799 111.009L233.156 107.603L232.082 105.688C231.934 105.408 231.867 105.093 231.889 104.777C231.91 104.461 232.018 104.158 232.202 103.9C232.402 103.6 232.594 103.268 232.771 102.984C232.92 102.704 233.145 102.471 233.42 102.312C233.694 102.153 234.008 102.074 234.325 102.084L236.53 102.153L236.751 94.9431L234.539 94.8801C234.223 94.8677 233.915 94.7677 233.652 94.5912C233.389 94.4146 233.18 94.1684 233.048 93.8801C232.972 93.7161 232.89 93.5581 232.808 93.4061C232.726 93.2541 232.637 93.0901 232.543 92.9451C232.377 92.6752 232.289 92.3645 232.289 92.0476C232.289 91.7306 232.377 91.4199 232.543 91.1501L233.718 89.2501L227.589 85.4591L226.42 87.3591C226.252 87.6287 226.013 87.8462 225.728 87.9875C225.444 88.1288 225.126 88.1882 224.809 88.1591C224.452 88.1275 224.094 88.1148 223.735 88.121C223.419 88.1305 223.107 88.0523 222.832 87.895C222.558 87.7377 222.333 87.5076 222.181 87.2301L221.138 85.2841L214.781 88.69L215.824 90.636C215.971 90.9158 216.039 91.2306 216.019 91.5461C215.999 91.8615 215.892 92.1653 215.71 92.4241C215.505 92.7181 215.317 93.024 215.148 93.3401C214.997 93.6183 214.772 93.8495 214.498 94.0082C214.224 94.167 213.911 94.2472 213.594 94.2401L211.382 94.1701L211.154 101.38L213.366 101.45C213.682 101.462 213.989 101.562 214.251 101.739C214.513 101.915 214.721 102.162 214.851 102.45C214.927 102.614 215.009 102.772 215.097 102.93C215.185 103.088 215.268 103.24 215.356 103.391C215.522 103.662 215.61 103.973 215.61 104.291C215.61 104.609 215.522 104.92 215.356 105.191L214.218 107.046ZM218.767 100.946C218.124 99.7423 217.918 98.3528 218.185 97.0143C218.451 95.6758 219.173 94.471 220.228 93.6052C221.283 92.7394 222.606 92.2661 223.971 92.266C225.335 92.2658 226.658 92.7388 227.713 93.6044C228.768 94.47 229.491 95.6746 229.758 97.013C230.024 98.3515 229.819 99.741 229.176 100.945C228.533 102.149 227.493 103.093 226.232 103.616C224.971 104.139 223.569 104.208 222.262 103.813C221.52 103.588 220.828 103.218 220.229 102.726C219.629 102.233 219.132 101.627 218.767 100.942V100.946Z" fill="#EBEBEB"/>
<path d="M239.523 84.627L242.051 89.006L243.391 88.229C243.585 88.1179 243.806 88.0632 244.03 88.071C244.253 88.0787 244.47 88.1487 244.655 88.273C244.859 88.4108 245.07 88.5374 245.287 88.652C245.494 88.7465 245.669 88.8976 245.793 89.0877C245.917 89.2778 245.984 89.4991 245.987 89.726V91.268H251.042V89.726C251.04 89.5072 251.097 89.2918 251.209 89.1035C251.32 88.9151 251.481 88.761 251.674 88.658C251.893 88.5445 252.104 88.4179 252.306 88.279C252.492 88.1547 252.709 88.0847 252.932 88.077C253.155 88.0692 253.377 88.1239 253.57 88.235L254.91 89.012L257.438 84.633L256.098 83.856C255.906 83.7428 255.749 83.5781 255.645 83.3806C255.542 83.1832 255.495 82.9606 255.51 82.738V81.998C255.494 81.7753 255.541 81.5525 255.644 81.3549C255.748 81.1573 255.906 80.9928 256.098 80.88L257.45 80.103L254.922 75.724L253.582 76.501C253.388 76.6106 253.167 76.6645 252.944 76.6568C252.721 76.649 252.505 76.5799 252.318 76.457C252.116 76.3179 251.905 76.1914 251.686 76.078C251.493 75.975 251.332 75.8209 251.221 75.6326C251.109 75.4442 251.052 75.2289 251.054 75.01V73.468H245.993V75.01C245.992 75.2318 245.929 75.4487 245.812 75.6371C245.695 75.8255 245.528 75.9781 245.33 76.078C245.112 76.1913 244.901 76.3179 244.698 76.457C244.512 76.5799 244.296 76.649 244.073 76.6568C243.85 76.6645 243.629 76.6106 243.434 76.501L242.094 75.724L239.566 80.103L240.912 80.874C241.102 80.9885 241.257 81.1525 241.361 81.3484C241.464 81.5443 241.513 81.7647 241.5 81.986C241.5 82.112 241.5 82.239 241.5 82.359V82.732C241.514 82.955 241.466 83.1773 241.361 83.3746C241.256 83.5718 241.099 83.7363 240.906 83.85L239.523 84.627ZM244.357 82.365C244.36 81.4093 244.694 80.4842 245.303 79.7472C245.911 79.0101 246.756 78.5068 247.694 78.3228C248.632 78.1388 249.604 78.2856 250.446 78.7381C251.288 79.1907 251.947 79.921 252.31 80.8047C252.674 81.6885 252.72 82.671 252.441 83.585C252.162 84.4989 251.574 85.2878 250.779 85.8173C249.983 86.3468 249.029 86.5841 248.078 86.4889C247.127 86.3937 246.238 85.9718 245.563 85.295C245.18 84.9098 244.876 84.4527 244.669 83.95C244.462 83.4472 244.356 82.9087 244.357 82.365Z" fill="#EBEBEB"/>
<path d="M53.0899 24.081L57.6839 32.087L60.1359 30.672C60.4897 30.47 60.8926 30.3701 61.2997 30.3835C61.7069 30.3969 62.1023 30.5231 62.4419 30.748C62.8267 31.0032 63.2253 31.2369 63.6359 31.448C63.9997 31.629 64.3063 31.9072 64.5216 32.2518C64.7369 32.5963 64.8527 32.9937 64.8559 33.4V36.225H74.1129V33.395C74.1162 32.9887 74.2319 32.5913 74.4473 32.2467C74.6626 31.9022 74.9692 31.624 75.3329 31.443C75.7436 31.2319 76.1422 30.9982 76.5269 30.743C76.8666 30.5181 77.262 30.3919 77.6692 30.3785C78.0763 30.3651 78.4792 30.465 78.8329 30.667L81.2849 32.082L85.9039 24.076L83.4389 22.665C83.0878 22.4583 82.801 22.1581 82.6105 21.7979C82.42 21.4377 82.3332 21.0316 82.3599 20.625C82.3599 20.3977 82.3599 20.1704 82.3599 19.943V19.265C82.3323 18.8602 82.4175 18.4557 82.606 18.0964C82.7946 17.7372 83.0791 17.4372 83.4279 17.23L85.9109 15.796L81.2919 7.79004L78.8339 9.21204C78.4792 9.41191 78.0763 9.51002 77.6694 9.49555C77.2625 9.48108 76.8675 9.3546 76.5279 9.13004C76.143 8.8785 75.7444 8.64848 75.3339 8.44104C74.9699 8.26135 74.6628 7.98446 74.4464 7.64101C74.23 7.29756 74.1129 6.90094 74.1079 6.49504V3.66504H64.8759V6.49604C64.8733 6.9016 64.7586 7.29854 64.5446 7.64302C64.3305 7.98749 64.0254 8.2661 63.6629 8.44804C63.2525 8.65547 62.8539 8.8855 62.4689 9.13704C62.1293 9.3616 61.7344 9.48808 61.3275 9.50254C60.9206 9.51701 60.5176 9.41891 60.1629 9.21904L57.6799 7.79704L53.0859 15.797L55.5439 17.219C55.8939 17.4255 56.1796 17.725 56.3693 18.0844C56.5589 18.4437 56.645 18.8486 56.6179 19.254V20.619C56.6453 21.0253 56.5594 21.4312 56.3698 21.7916C56.1802 22.1519 55.8943 22.4526 55.5439 22.66L53.0899 24.081ZM61.9359 19.942C63.9476 19.9428 65.8766 20.7426 67.2986 22.1655C68.7207 23.5884 69.5193 25.5179 69.5189 27.5295C69.5185 29.5412 68.7191 31.4704 67.2965 32.8927C65.8739 34.315 63.9446 35.114 61.9329 35.114C59.9213 35.114 57.992 34.315 56.5694 32.8927C55.1468 31.4704 54.3473 29.5412 54.3469 27.5295C54.3465 25.5179 55.1452 23.5884 56.5672 22.1655C57.9893 20.7426 59.9183 19.9428 61.9299 19.942H61.9359Z" fill="#EBEBEB"/>
<path d="M222.604 36.646C222.02 40.5866 220.316 44.2766 217.696 47.2772C215.076 50.2778 211.649 52.4629 207.823 53.5726C203.997 54.6824 199.933 54.6701 196.114 53.5373C192.294 52.4045 188.881 50.1987 186.279 47.1823C183.677 44.1659 181.996 40.4658 181.435 36.5217C180.875 32.5777 181.459 28.5557 183.118 24.9339C184.777 21.3122 187.441 18.243 190.794 16.0913C194.146 13.9395 198.046 12.7958 202.03 12.796V33.596L222.604 36.646Z" fill="#EBEBEB"/>
<path d="M227.082 29.357C227.083 30.3767 227.007 31.3949 226.854 32.403L206.281 29.357V8.55603C209.013 8.55459 211.719 9.09161 214.243 10.1364C216.767 11.1812 219.061 12.7132 220.992 14.645C222.924 16.5767 224.456 18.8703 225.501 21.3945C226.546 23.9187 227.083 26.6241 227.081 29.356L227.082 29.357Z" fill="#DBDBDB"/>
<path d="M234.722 44.8511H212.6V45.3751H234.722V44.8511Z" fill="#C7C7C7"/>
<path d="M236.269 46.923C235.91 46.9228 235.56 46.8163 235.262 46.617C234.964 46.4176 234.732 46.1344 234.595 45.8031C234.458 45.4718 234.422 45.1073 234.492 44.7557C234.562 44.4041 234.735 44.0811 234.988 43.8277C235.242 43.5742 235.565 43.4016 235.917 43.3318C236.268 43.2619 236.633 43.2978 236.964 43.4351C237.295 43.5724 237.578 43.8047 237.778 44.1029C237.977 44.401 238.083 44.7515 238.083 45.11C238.083 45.3482 238.036 45.584 237.945 45.804C237.854 46.0241 237.72 46.224 237.552 46.3923C237.383 46.5607 237.183 46.6942 236.963 46.7853C236.743 46.8763 236.507 46.9231 236.269 46.923ZM236.269 43.823C236.019 43.823 235.775 43.8971 235.567 44.036C235.359 44.1749 235.197 44.3723 235.101 44.6033C235.006 44.8342 234.981 45.0884 235.029 45.3336C235.078 45.5788 235.198 45.804 235.375 45.9808C235.552 46.1576 235.777 46.2779 236.022 46.3267C236.268 46.3755 236.522 46.3505 236.753 46.2548C236.984 46.1591 237.181 45.9971 237.32 45.7892C237.459 45.5814 237.533 45.337 237.533 45.087C237.533 44.9208 237.501 44.7561 237.438 44.6024C237.374 44.4487 237.281 44.309 237.164 44.1913C237.046 44.0736 236.907 43.9802 236.753 43.9165C236.6 43.8528 236.435 43.82 236.269 43.82V43.823Z" fill="#C7C7C7"/>
<path d="M259.076 43.947H241.895V44.724H259.076V43.947Z" fill="#C7C7C7"/>
<path d="M251.62 45.495H241.895V46.272H251.62V45.495Z" fill="#C7C7C7"/>
<path d="M87.7542 141.154C87.7542 141.154 72.5072 139.012 76.0712 120.612C76.0712 120.612 93.1122 124.432 87.7542 141.154Z" fill="#EBEBEB"/>
<path d="M86.9873 137.312C86.6889 136.381 86.3431 135.466 85.9513 134.57L85.9133 134.222C85.9133 133.969 85.8693 133.71 85.8503 133.457C85.8063 132.907 85.7743 132.357 85.7433 131.808C85.6733 130.708 85.6043 129.608 85.5853 128.508C85.5853 128.496 85.5807 128.485 85.5724 128.477C85.5642 128.469 85.553 128.464 85.5413 128.464C85.5296 128.464 85.5184 128.469 85.5102 128.477C85.5019 128.485 85.4973 128.496 85.4973 128.508V131.808C85.5226 132.36 85.5543 132.91 85.5923 133.457V133.823C84.7379 131.99 83.7141 130.24 82.5343 128.597C82.0103 127.864 81.4603 127.156 80.8663 126.48C80.2723 125.804 79.6023 125.122 78.9663 124.433C78.9283 124.389 78.8593 124.433 78.9033 124.503C79.9956 125.714 80.9788 127.019 81.8413 128.403C82.3023 129.103 82.7413 129.825 83.1553 130.558L83.0163 130.501L82.4733 130.28L81.2093 129.812L78.8393 128.889C78.7953 128.889 78.7573 128.958 78.8393 128.978C79.6483 129.3 80.4503 129.641 81.2533 129.989L82.4353 130.495C82.6353 130.583 82.8353 130.659 83.0293 130.741C83.1569 130.804 83.2911 130.853 83.4293 130.886C83.7393 131.436 84.0613 131.992 84.3293 132.554C85.0358 133.991 85.6582 135.468 86.1933 136.977C86.2253 137.077 86.2623 137.186 86.3003 137.293C85.8967 137.049 85.474 136.837 85.0363 136.661L83.4563 135.941C82.3883 135.454 81.3273 134.955 80.2973 134.374C80.2463 134.374 80.1973 134.431 80.2533 134.456C81.3023 135.031 82.3263 135.638 83.3743 136.206C83.8983 136.49 84.4293 136.768 84.9663 137.027C85.4091 137.293 85.891 137.487 86.3943 137.602C86.9032 138.998 87.2391 140.452 87.3943 141.93C87.5583 144.009 87.5393 146.107 87.5943 148.192C87.5943 148.23 87.6453 148.23 87.6513 148.192C87.8026 146.297 87.8846 144.401 87.8973 142.505C87.8731 140.737 87.5659 138.983 86.9873 137.312Z" fill="#C7C7C7"/>
<path d="M84.6398 126.488C84.4914 127.562 84.4405 128.646 84.4878 129.729H84.5318C84.5948 128.655 84.6018 127.581 84.7318 126.506C84.7338 126.451 84.6458 126.43 84.6398 126.488Z" fill="#C7C7C7"/>
<path d="M80.2783 127.412C79.5967 127.151 78.9409 126.828 78.3193 126.445C78.2683 126.413 78.2193 126.496 78.2683 126.527C78.8797 126.938 79.5482 127.258 80.2523 127.475C80.2913 127.481 80.3163 127.424 80.2783 127.412Z" fill="#C7C7C7"/>
<path d="M88.2414 170.379C88.2414 168.692 88.1974 167.011 88.1784 165.324C88.1784 159.724 88.1024 154.134 88.0014 148.535C87.9254 144.095 87.822 139.653 87.6914 135.209C87.6905 135.197 87.6866 135.185 87.68 135.175C87.6733 135.165 87.6641 135.157 87.6534 135.152V131.508C87.6534 131.476 87.6154 131.464 87.5774 131.464C87.5394 131.464 87.5074 131.464 87.5074 131.515V135.161C87.5034 135.169 87.5013 135.178 87.5013 135.186C87.5013 135.195 87.5034 135.204 87.5074 135.212C87.2804 143.112 87.0844 151.012 87.0334 158.933V163.761C86.9787 168.917 86.9577 174.073 86.9704 179.229V181.687C86.9704 186.407 87.0214 191.121 87.0214 195.841C87.0214 196.094 87.3054 196.22 87.6094 196.233C87.9134 196.246 88.3094 196.113 88.3094 195.822C88.3094 190.615 88.3474 185.415 88.3474 180.215C88.2544 176.925 88.2664 173.658 88.2414 170.379Z" fill="#C7C7C7"/>
<path d="M84.5324 167.269C84.5324 167.269 80.7414 158.954 72.8994 158.769C65.0574 158.584 57.1914 170.427 57.1914 170.427C57.1914 170.427 65.4054 176.676 74.0114 174.458C82.3274 172.318 84.5324 167.269 84.5324 167.269Z" fill="#EBEBEB"/>
<path d="M86.1182 168.534C85.1958 167.421 84.0128 166.553 82.6742 166.007C82.4427 165.816 82.1955 165.645 81.9352 165.495C81.6442 165.305 81.3542 165.116 81.0692 164.92L79.2752 163.751C78.0622 162.951 76.8362 162.171 75.6482 161.337C75.6042 161.337 75.5532 161.381 75.5912 161.413C76.7542 162.266 77.8972 163.138 79.0792 163.941C79.7112 164.364 80.2922 164.788 80.9112 165.205L81.3602 165.515C81.1452 165.445 80.9242 165.389 80.7282 165.338C79.5614 165.066 78.369 164.92 77.1712 164.902C76.6152 164.712 76.0342 164.573 75.4712 164.409C74.5712 164.156 73.6712 163.922 72.7712 163.689C70.9892 163.234 69.1952 162.83 67.4002 162.425C67.3432 162.425 67.3242 162.494 67.4002 162.513C69.1572 162.993 70.9002 163.513 72.6512 164.004L75.1782 164.718L75.8102 164.908C73.494 165.015 71.2106 165.497 69.0492 166.336C66.9473 167.171 64.9531 168.255 63.1092 169.565C63.0582 169.597 63.1092 169.679 63.1532 169.647C65.2254 168.395 67.454 167.421 69.7812 166.753L69.5542 166.961L68.5682 167.896C67.9362 168.528 67.2472 169.16 66.6032 169.796C66.5592 169.84 66.6032 169.896 66.6732 169.859C67.3492 169.278 68.0132 168.69 68.6822 168.096L69.6682 167.224L70.1682 166.769L70.3262 166.63C71.4292 166.336 72.5498 166.112 73.6812 165.96C75.1695 165.771 76.6746 165.751 78.1672 165.903C78.0852 166.003 78.0032 166.103 77.9212 166.194L77.2762 166.927C76.8082 167.464 76.3532 168.007 75.8992 168.551C74.9642 169.657 74.1172 170.832 73.1992 171.944C73.1942 171.948 73.1902 171.954 73.1875 171.96C73.1847 171.966 73.1833 171.972 73.1832 171.979C73.1832 171.986 73.1845 171.992 73.1871 171.998C73.1898 172.004 73.1936 172.01 73.1985 172.014C73.2034 172.019 73.2092 172.022 73.2154 172.024C73.2217 172.026 73.2284 172.027 73.2349 172.026C73.2415 172.025 73.2479 172.023 73.2536 172.02C73.2593 172.017 73.2643 172.012 73.2682 172.007C74.2472 170.92 75.3032 169.896 76.2762 168.807L77.7292 167.158C77.9562 166.899 78.1782 166.634 78.3992 166.375C78.5252 166.23 78.6522 166.091 78.7592 165.939C78.9044 165.931 79.05 165.948 79.1892 165.99C81.2695 166.199 83.2532 166.973 84.9262 168.227C85.6875 168.856 86.2811 169.663 86.6538 170.577C87.0266 171.491 87.1669 172.483 87.0622 173.465C87.0594 173.503 87.0712 173.541 87.0952 173.571C87.1192 173.601 87.1537 173.621 87.1917 173.627C87.2297 173.632 87.2684 173.623 87.3001 173.601C87.3317 173.58 87.3539 173.547 87.3622 173.509C87.562 172.64 87.5535 171.737 87.3373 170.872C87.121 170.008 86.7033 169.206 86.1182 168.534Z" fill="#C7C7C7"/>
<path d="M73.3604 168.351L71.4604 170.487C70.8282 171.156 70.2374 171.863 69.6914 172.604C69.6914 172.604 69.6914 172.661 69.7424 172.642C70.4218 171.99 71.0565 171.294 71.6424 170.557L73.4494 168.415C73.4578 168.403 73.4611 168.389 73.4588 168.375C73.4565 168.361 73.4486 168.348 73.4369 168.34C73.4252 168.331 73.4107 168.328 73.3966 168.33C73.3824 168.333 73.3698 168.34 73.3614 168.352L73.3604 168.351Z" fill="#C7C7C7"/>
<path d="M66.0194 166.966C64.9704 166.922 63.9194 166.966 62.8604 166.821C62.8487 166.821 62.8375 166.826 62.8293 166.834C62.821 166.842 62.8164 166.853 62.8164 166.865C62.8164 166.877 62.821 166.888 62.8293 166.896C62.8375 166.904 62.8487 166.909 62.8604 166.909C63.9109 166.998 64.9655 167.029 66.0194 167.004V166.966Z" fill="#C7C7C7"/>
<path d="M83.5275 155.284C83.5275 155.284 74.5615 155.853 70.3905 149.945C66.2195 144.037 67.1615 135.589 67.1615 135.589C67.1615 135.589 76.5765 136.733 80.3175 140.979C84.0585 145.225 83.5275 155.284 83.5275 155.284Z" fill="#EBEBEB"/>
<path d="M87.7297 164.123C87.4197 163.163 87.0297 162.223 86.6747 161.28C86.3197 160.337 85.9547 159.48 85.5627 158.595C84.7617 156.787 83.863 155.024 82.8707 153.313C82.2387 152.22 81.5627 151.165 80.8707 150.122C80.8572 149.96 80.8318 149.8 80.7947 149.642C80.7567 149.37 80.7187 149.092 80.6747 148.814C80.5867 148.245 80.4847 147.677 80.3907 147.114C80.1817 145.85 79.9297 144.643 79.7587 143.405C79.7587 143.348 79.6587 143.348 79.6637 143.405C79.8467 144.631 79.9637 145.863 80.1377 147.082C80.2197 147.714 80.3017 148.289 80.3907 148.889C80.4287 149.104 80.4607 149.325 80.4977 149.521C79.1335 147.522 77.6567 145.602 76.0747 143.771C75.8597 143.518 75.6387 143.278 75.4427 143.038C75.4427 142.968 75.3857 142.899 75.3607 142.83L75.1607 142.318C75.0277 141.964 74.9017 141.604 74.7757 141.25C74.5227 140.55 74.2957 139.841 74.1057 139.121C74.1057 139.058 74.0057 139.089 74.0177 139.121C74.2007 139.854 74.3907 140.587 74.6057 141.314C74.7057 141.668 74.8267 142.014 74.9467 142.357L75.0097 142.534C73.8657 141.27 72.6717 140.082 71.4647 138.888C71.4554 138.88 71.4432 138.875 71.4307 138.876C71.4182 138.877 71.4065 138.882 71.3982 138.892C71.3898 138.901 71.3855 138.913 71.3861 138.926C71.3868 138.938 71.3924 138.95 71.4017 138.958C73.7044 141.385 75.817 143.985 77.7207 146.736C77.5138 146.668 77.3027 146.613 77.0887 146.572C76.3997 146.439 75.6987 146.338 75.0037 146.25C73.5437 146.067 72.0847 145.877 70.6307 145.65C70.5737 145.65 70.5487 145.732 70.6307 145.738C72.0207 146.016 73.3917 146.326 74.7757 146.638C75.4077 146.79 76.0757 146.916 76.7347 147.049C77.2683 147.164 77.7938 147.314 78.3077 147.498C78.4527 147.698 78.6077 147.909 78.7437 148.13C79.3757 149.084 80.0077 150.064 80.6437 151.049L79.7277 150.866C79.0387 150.733 78.3437 150.607 77.6487 150.493C76.2777 150.272 74.9127 150.032 73.5607 149.722C73.5037 149.722 73.4787 149.804 73.5607 149.817C74.9317 150.139 76.2907 150.517 77.6487 150.872C78.2807 151.049 78.9697 151.207 79.6327 151.359L80.6327 151.574C80.7645 151.605 80.8981 151.628 81.0327 151.643C82.3387 153.749 83.5623 155.921 84.7037 158.158C85.2037 159.131 85.6897 160.117 86.1507 161.109C86.6117 162.101 87.0417 163.163 87.4837 164.199C87.4767 164.433 87.8057 164.35 87.7297 164.123Z" fill="#C7C7C7"/>
<path d="M78.5362 143.524C78.3652 142.671 78.1882 141.818 77.9992 140.965C77.9992 140.908 77.8992 140.965 77.9112 140.965C78.0822 141.805 78.2402 142.646 78.3912 143.492C78.5161 144.343 78.6863 145.187 78.9012 146.02C78.839 145.18 78.7171 144.346 78.5362 143.524Z" fill="#C7C7C7"/>
<path d="M73.3294 143.271C72.9124 143.071 72.4704 142.898 72.0654 142.734L71.3834 142.462L71.0424 142.323C70.9079 142.289 70.7799 142.234 70.6634 142.159C70.5934 142.108 70.5494 142.229 70.6194 142.241C70.7527 142.275 70.8804 142.328 70.9984 142.399L71.3394 142.551L71.9714 142.842C72.4026 143.039 72.8435 143.214 73.2924 143.366C73.2986 143.368 73.3053 143.37 73.312 143.37C73.3187 143.37 73.3254 143.368 73.3315 143.366C73.3377 143.363 73.3433 143.359 73.348 143.354C73.3527 143.349 73.3564 143.344 73.3589 143.337C73.3614 143.331 73.3626 143.325 73.3625 143.318C73.3625 143.311 73.361 143.304 73.3584 143.298C73.3558 143.292 73.3519 143.287 73.3471 143.282C73.3423 143.277 73.3366 143.273 73.3304 143.271H73.3294Z" fill="#C7C7C7"/>
<path d="M92.7012 148.232C92.7012 148.232 98.1292 138.122 106.381 136.532C114.633 134.942 119.681 143.438 119.681 143.438C119.681 143.438 113.666 151.128 106.089 152.474C98.5122 153.82 92.7012 148.232 92.7012 148.232Z" fill="#EBEBEB"/>
<path d="M111.911 141.073C109.763 140.782 107.583 140.808 105.441 141.149C105.561 141.079 105.687 141.01 105.807 140.949L107.639 140.001C108.903 139.369 110.167 138.642 111.512 138.101C111.521 138.101 111.529 138.098 111.536 138.094C111.543 138.09 111.549 138.084 111.553 138.077C111.557 138.07 111.56 138.062 111.56 138.054C111.561 138.046 111.559 138.037 111.556 138.03C111.553 138.022 111.548 138.016 111.542 138.011C111.535 138.005 111.528 138.002 111.52 138C111.512 137.999 111.503 137.999 111.495 138.001C111.488 138.003 111.48 138.007 111.474 138.013C110.21 138.645 108.845 139.119 107.55 139.719C106.918 140.019 106.286 140.351 105.65 140.661C105.239 140.876 104.791 141.078 104.386 141.337C102.572 141.703 100.808 142.288 99.1354 143.081L100.171 141.956C100.936 141.116 101.694 140.231 102.541 139.456C102.585 139.418 102.541 139.356 102.472 139.393C101.613 140.177 100.696 140.903 99.8624 141.718C99.4514 142.118 99.0624 142.527 98.6874 142.95C98.4974 143.159 98.3084 143.373 98.1314 143.582C95.2971 145.103 92.8349 147.233 90.9218 149.819C89.0086 152.405 87.6919 155.383 87.0664 158.538C87.0664 158.595 87.1424 158.626 87.1544 158.538C88.3185 154.677 90.4021 151.155 93.2264 148.276C96.2617 145.177 100.085 142.964 104.284 141.876C106.774 141.243 109.348 141.006 111.911 141.176C111.923 141.161 111.93 141.143 111.93 141.125C111.93 141.106 111.923 141.088 111.911 141.073Z" fill="#C7C7C7"/>
<path d="M107.115 137.458C106.484 137.829 105.873 138.232 105.283 138.665C104.709 139.103 104.176 139.592 103.691 140.125C103.653 140.169 103.691 140.232 103.767 140.188C104.31 139.714 104.86 139.24 105.429 138.788C105.983 138.334 106.563 137.912 107.167 137.524C107.174 137.522 107.18 137.518 107.185 137.513C107.19 137.508 107.194 137.502 107.196 137.495C107.199 137.488 107.199 137.481 107.198 137.474C107.196 137.466 107.193 137.46 107.189 137.454C107.184 137.448 107.178 137.444 107.172 137.441C107.165 137.438 107.158 137.437 107.15 137.438C107.143 137.439 107.136 137.441 107.13 137.445C107.124 137.449 107.119 137.455 107.116 137.461L107.115 137.458Z" fill="#C7C7C7"/>
<path d="M111.64 139.17C111.34 139.303 111.008 139.41 110.717 139.536L109.801 139.915C109.731 139.947 109.763 140.054 109.801 140.022L110.755 139.643L111.671 139.251C111.727 139.24 111.702 139.152 111.64 139.17Z" fill="#C7C7C7"/>
<path d="M91.6152 160.984C91.6152 160.984 93.0682 171.037 100.651 174.557C108.234 178.077 117.427 174.557 117.427 174.557C117.427 174.557 113.775 152.807 91.6152 160.984Z" fill="#EBEBEB"/>
<path d="M112.196 168.016C111.496 167.934 110.806 167.816 110.111 167.694L109.1 167.494L108.569 167.386C108.361 167.196 108.169 167.007 107.937 166.824C106.504 165.563 104.955 164.44 103.312 163.469C102.418 162.941 101.493 162.467 100.544 162.047H100.683L103.173 162.154C104.835 162.23 106.49 162.268 108.146 162.375C108.209 162.375 108.203 162.287 108.146 162.28C106.484 162.166 104.829 161.989 103.167 161.844L100.747 161.629L99.4828 161.522L99.1668 161.484C98.7308 161.326 98.3008 161.174 97.8588 161.035C95.7984 160.332 93.5842 160.21 91.4588 160.681C90.4757 160.867 89.56 161.312 88.8059 161.969C88.0519 162.627 87.4867 163.473 87.1688 164.422C87.164 164.438 87.1654 164.455 87.1727 164.469C87.18 164.484 87.1926 164.495 87.208 164.501C87.2234 164.507 87.2403 164.506 87.2553 164.5C87.2704 164.493 87.2824 164.481 87.2888 164.466C87.9968 162.792 89.8538 161.938 91.5348 161.604C92.6621 161.388 93.8177 161.365 94.9528 161.534C95.0348 162.052 95.1637 162.562 95.3378 163.057L95.9698 165.174C96.3998 166.589 96.8698 167.986 97.2908 169.401C97.2908 169.458 97.3978 169.433 97.3788 169.401C97.0308 167.986 96.7468 166.564 96.3928 165.148C96.2288 164.459 96.0518 163.764 95.8808 163.069C95.7826 162.585 95.654 162.109 95.4958 161.641C96.1582 161.761 96.8141 161.915 97.4608 162.102C98.6286 162.449 99.7727 162.871 100.886 163.366C101 164.08 101.158 164.794 101.322 165.502C101.531 166.387 101.758 167.265 102.042 168.131C102.042 168.188 102.137 168.163 102.124 168.131C102.12 168.076 102.12 168.022 102.124 167.967C101.96 167.146 101.776 166.324 101.6 165.503C101.461 164.871 101.335 164.176 101.189 163.519C102.132 163.935 103.052 164.402 103.944 164.919C103.961 165.121 103.994 165.322 104.044 165.519C104.095 165.86 104.158 166.208 104.221 166.549C104.366 167.326 104.521 168.097 104.708 168.862C105.049 170.346 105.483 171.806 106.008 173.235C106.008 173.235 106.008 173.273 106.008 173.292L106.046 173.343C106.053 173.351 106.062 173.356 106.072 173.357C106.082 173.359 106.093 173.357 106.101 173.352C106.11 173.346 106.117 173.338 106.121 173.329C106.125 173.319 106.125 173.309 106.122 173.299C105.774 171.808 105.376 170.329 105.048 168.838C104.884 168.092 104.719 167.338 104.568 166.595L104.359 165.47C104.348 165.355 104.329 165.241 104.302 165.129C105.32 165.728 106.303 166.384 107.247 167.094C108.876 168.318 110.385 169.696 111.752 171.207C111.764 171.222 111.781 171.232 111.8 171.235C111.819 171.237 111.838 171.232 111.853 171.22C111.868 171.208 111.878 171.191 111.88 171.172C111.883 171.153 111.877 171.134 111.866 171.119C111.285 170.361 110.716 169.619 110.066 168.919C109.681 168.519 109.289 168.119 108.884 167.731H109.01L110.078 167.889C110.778 167.984 111.478 168.053 112.178 168.129C112.228 168.11 112.253 168.022 112.196 168.016Z" fill="#C7C7C7"/>
<path d="M106.882 171.421C106.888 171.332 106.873 171.243 106.838 171.162C106.79 171.058 106.761 170.947 106.75 170.833C106.598 170.163 106.466 169.487 106.35 168.811C106.346 168.803 106.341 168.796 106.333 168.791C106.326 168.786 106.317 168.783 106.309 168.783C106.3 168.783 106.291 168.786 106.284 168.791C106.276 168.796 106.271 168.803 106.268 168.811C106.313 169.711 106.507 170.597 106.843 171.433H106.894L106.882 171.421Z" fill="#C7C7C7"/>
<path d="M100.557 171.238C100.557 171.206 100.557 171.194 100.513 171.194C100.298 170.303 100.096 169.412 99.9127 168.515C99.8127 168.047 99.7127 167.574 99.6217 167.106C99.5777 166.847 99.5267 166.594 99.4827 166.341C99.4607 166.123 99.4054 165.91 99.3187 165.709C99.3155 165.701 99.3098 165.694 99.3025 165.689C99.2952 165.684 99.2865 165.681 99.2777 165.681C99.2688 165.681 99.2602 165.684 99.2528 165.689C99.2455 165.694 99.2399 165.701 99.2367 165.709C99.2311 166.167 99.2951 166.623 99.4267 167.061C99.5217 167.554 99.6167 168.04 99.7267 168.527C99.9477 169.519 100.195 170.511 100.473 171.484C100.473 171.541 100.58 171.528 100.573 171.484C100.563 171.402 100.557 171.32 100.557 171.238Z" fill="#C7C7C7"/>
<path d="M111.506 165.125C110.122 164.935 108.745 164.733 107.361 164.569C107.304 164.569 107.279 164.651 107.361 164.658C108.738 164.858 110.122 165.031 111.506 165.214C111.538 165.216 111.563 165.125 111.506 165.125Z" fill="#C7C7C7"/>
<path d="M87.7484 137.408C87.7484 137.408 83.1234 117.119 104.922 108.908C104.922 108.904 110.963 135.613 87.7484 137.408Z" fill="#EBEBEB"/>
<path d="M92.4372 125.901L92.6712 125.756L93.9352 125.067L96.4622 123.652C98.1242 122.723 99.7622 121.752 101.441 120.846C101.498 120.814 101.441 120.739 101.397 120.764C99.7162 121.68 98.0102 122.533 96.3422 123.424L93.8152 124.745L92.7912 125.288C93.5182 123.904 94.2912 122.552 95.1482 121.25C96.2922 119.512 97.5362 117.857 98.8382 116.239C98.8503 116.224 98.8565 116.206 98.8556 116.187C98.8547 116.168 98.8468 116.15 98.8334 116.137C98.82 116.124 98.8021 116.116 98.7832 116.115C98.7644 116.114 98.7458 116.12 98.7312 116.132C96.8152 117.992 95.1191 120.065 93.6762 122.312C93.6762 122.245 93.6762 122.176 93.6762 122.103C93.6762 121.598 93.7142 121.092 93.7202 120.587C93.7202 119.601 93.6882 118.609 93.7202 117.617C93.7202 117.554 93.6322 117.56 93.6252 117.617C93.5872 118.596 93.4672 119.563 93.4102 120.543C93.4102 121.03 93.3662 121.516 93.3472 122.003C93.3314 122.285 93.3314 122.568 93.3472 122.85C92.8982 123.564 92.4622 124.291 92.0832 125.024C91.3542 126.348 90.7024 127.713 90.1312 129.112C90.1312 128.607 90.0802 128.101 90.0492 127.596C89.9862 126.484 89.8492 125.378 89.8032 124.266C89.8032 124.26 89.8021 124.255 89.7999 124.249C89.7977 124.244 89.7944 124.239 89.7903 124.235C89.7863 124.231 89.7814 124.228 89.7761 124.225C89.7707 124.223 89.765 124.222 89.7592 124.222C89.7535 124.222 89.7477 124.223 89.7424 124.225C89.7371 124.228 89.7322 124.231 89.7281 124.235C89.724 124.239 89.7208 124.244 89.7186 124.249C89.7164 124.255 89.7152 124.26 89.7152 124.266V127.602C89.704 128.157 89.7273 128.712 89.7852 129.264L89.8232 129.896C89.1264 131.709 88.575 133.575 88.1742 135.475C87.8002 137.503 87.5302 139.549 87.3652 141.604C87.599 139.756 87.9857 137.93 88.5212 136.145C88.7932 135.185 89.0772 134.245 89.3872 133.289C90.2872 132.859 91.1632 132.329 92.0352 131.842C92.9072 131.355 93.8612 130.842 94.7772 130.342C96.5902 129.342 98.4102 128.326 100.287 127.448C100.338 127.448 100.287 127.341 100.236 127.366C98.3362 128.232 96.4452 129.047 94.5492 129.988C93.6202 130.449 92.7042 130.948 91.8002 131.46C91.0422 131.89 90.2652 132.313 89.5382 132.806C89.7532 132.174 89.9682 131.542 90.2142 130.906C90.8698 129.201 91.6118 127.531 92.4372 125.901Z" fill="#C7C7C7"/>
<path d="M90.6167 121.263C90.6167 121.2 90.5167 121.2 90.5217 121.263C90.5977 122.419 90.6357 123.576 90.7617 124.732C90.764 124.744 90.7702 124.754 90.7794 124.761C90.7885 124.769 90.7999 124.773 90.8117 124.773C90.8234 124.773 90.8349 124.769 90.844 124.761C90.8531 124.754 90.8593 124.744 90.8617 124.732C90.8247 123.57 90.6987 122.42 90.6167 121.263Z" fill="#C7C7C7"/>
<path d="M101.068 125.111C99.7031 125.661 98.3261 126.179 96.9681 126.748C96.9301 126.748 96.9681 126.83 96.9681 126.811C98.3451 126.299 99.7041 125.737 101.075 125.2C101.15 125.206 101.125 125.111 101.068 125.111Z" fill="#C7C7C7"/>
<path d="M103.14 115.778C101.805 116.389 100.509 117.084 99.2605 117.857C99.1975 117.895 99.2605 117.99 99.3235 117.952C100.587 117.213 101.851 116.505 103.19 115.852C103.242 115.829 103.176 115.751 103.14 115.778Z" fill="#C7C7C7"/>
<path d="M98.4961 212H76.6211L78.8451 181.291H96.2781L98.4961 212Z" fill="#DBDBDB"/>
<path d="M78.3965 187.515H96.7275L96.2725 181.291H78.8455L78.3965 187.515Z" fill="#C7C7C7"/>
<path d="M76.9684 184.672H98.1484V179.326H76.9684V184.672Z" fill="#DBDBDB"/>
<path d="M145.779 236.062C218.582 236.062 277.601 232.138 277.601 227.298C277.601 222.458 218.582 218.534 145.779 218.534C72.9758 218.534 13.957 222.458 13.957 227.298C13.957 232.138 72.9758 236.062 145.779 236.062Z" fill="#EBEBEB"/>
<path d="M0 211.985L34.8 211.833L69.6 211.776L139.2 211.669L208.8 211.776L243.6 211.827L278.4 211.985L243.6 212.137L208.8 212.194L139.2 212.301L69.59 212.185L34.79 212.128L0 211.985Z" fill="#263238"/>
<path d="M121.647 80.52C121.078 80.52 99.9358 90.276 98.6848 114.306C97.5348 136.422 112.807 157.381 114.779 156.006C117.193 154.306 113.092 140.544 117.787 124.798C119.449 119.212 126.728 114.258 126.728 114.258L121.647 80.52Z" fill="#B48CFC"/>
<path opacity="0.1" d="M126.734 114.243C124.608 115.749 122.666 117.498 120.946 119.456C117.787 112.436 111.935 99.331 108.146 90.838C114.338 83.679 121.327 80.519 121.646 80.519L126.734 114.243Z" fill="black"/>
<path d="M175.461 80.558C176.023 80.558 197.153 90.346 198.373 114.376C199.491 136.492 184.181 157.432 182.216 156.042C179.802 154.336 183.928 140.58 179.259 124.827C177.604 119.241 170.324 114.275 170.324 114.275L175.461 80.558Z" fill="#B48CFC"/>
<path opacity="0.1" d="M189.025 90.99C185.196 99.558 179.319 112.69 176.211 119.627C174.468 117.621 172.494 115.829 170.328 114.288L175.458 80.564C175.781 80.551 182.827 83.755 189.025 90.99Z" fill="black"/>
<path d="M164.54 135.8H132.64C132.64 135.8 117.614 108.926 119.371 76.89C120.271 60.897 124.426 44.797 129.481 31.471C136.415 13.048 144.977 0 148.673 0C152.369 0 160.919 13.067 167.83 31.48C172.83 44.806 176.986 60.919 177.858 76.912C179.63 108.948 164.54 135.8 164.54 135.8Z" fill="#EBEBEB"/>
<path d="M167.724 72.76C167.72 76.3991 166.637 79.9555 164.612 82.9792C162.587 86.003 159.711 88.3584 156.348 89.7476C152.984 91.1368 149.284 91.4973 145.716 90.7837C142.147 90.07 138.87 88.3142 136.3 85.7383C133.729 83.1623 131.98 79.882 131.274 76.312C130.567 72.742 130.936 69.0427 132.332 65.682C133.728 62.3213 136.089 59.4501 139.117 57.4314C142.145 55.4127 145.704 54.3372 149.343 54.341C151.759 54.3434 154.151 54.8218 156.383 55.7488C158.614 56.6758 160.641 58.0333 162.348 59.7436C164.055 61.454 165.408 63.4838 166.33 65.7171C167.253 67.9505 167.726 70.3436 167.724 72.76Z" fill="#C7C7C7"/>
<path d="M167.073 70.89C167.068 75.145 165.587 79.2664 162.884 82.5523C160.18 85.8382 156.422 88.0852 152.247 88.9106C148.073 89.7361 143.742 89.0889 139.992 87.0792C136.241 85.0696 133.303 81.8218 131.679 77.8892C130.054 73.9566 129.843 69.5824 131.082 65.5117C132.32 61.441 134.932 57.9256 138.472 55.5643C142.011 53.203 146.26 52.142 150.494 52.5618C154.728 52.9817 158.686 54.8566 161.693 57.867C163.402 59.5778 164.756 61.6086 165.679 63.8431C166.602 66.0777 167.076 68.4723 167.073 70.89Z" fill="#B48CFC"/>
<path d="M161.378 72.1499C162.076 65.139 156.958 58.8902 149.947 58.1926C142.936 57.4951 136.687 62.613 135.99 69.6238C135.292 76.6346 140.41 82.8835 147.421 83.581C154.432 84.2786 160.68 79.1607 161.378 72.1499Z" fill="white"/>
<path d="M161.438 70.871C161.441 72.4533 161.147 74.0222 160.572 75.496L153.305 82.775C150.737 83.7663 147.919 83.9037 145.268 83.167L160.968 67.467C161.278 68.5751 161.436 69.7203 161.438 70.871Z" fill="#EBEBEB"/>
<path d="M150.568 58.253L136.035 72.753C135.943 72.1239 135.896 71.4889 135.896 70.853C135.908 67.4733 137.26 64.2362 139.655 61.8517C142.05 59.4671 145.293 58.1298 148.672 58.133C149.308 58.1266 149.943 58.1667 150.572 58.253H150.568Z" fill="#EBEBEB"/>
<path d="M159.845 64.698L142.5 82.037C142.164 81.8448 141.84 81.6338 141.527 81.405L159.22 63.713C159.45 64.0274 159.659 64.3564 159.845 64.698Z" fill="#EBEBEB"/>
<path d="M167.846 31.48H129.496C136.415 13.048 144.977 0 148.673 0C152.369 0 160.932 13.067 167.846 31.48Z" fill="#B48CFC"/>
<path d="M136.099 27.493C136.099 27.7054 136.036 27.913 135.918 28.0896C135.8 28.2662 135.632 28.4039 135.436 28.4852C135.24 28.5665 135.024 28.5878 134.816 28.5463C134.607 28.5049 134.416 28.4026 134.266 28.2524C134.116 28.1022 134.013 27.9108 133.972 27.7025C133.93 27.4941 133.952 27.2782 134.033 27.0819C134.114 26.8857 134.252 26.718 134.428 26.6C134.605 26.4819 134.813 26.4189 135.025 26.4189C135.31 26.4189 135.583 26.5321 135.785 26.7335C135.986 26.9349 136.099 27.2081 136.099 27.493Z" fill="white"/>
<path d="M142.923 27.499C142.923 27.7115 142.86 27.9191 142.742 28.0957C142.624 28.2724 142.457 28.41 142.26 28.4913C142.064 28.5726 141.848 28.5939 141.64 28.5524C141.432 28.511 141.24 28.4087 141.09 28.2585C140.94 28.1083 140.837 27.9169 140.796 27.7086C140.755 27.5002 140.776 27.2843 140.857 27.0881C140.938 26.8918 141.076 26.7241 141.253 26.606C141.429 26.488 141.637 26.425 141.849 26.425C142.134 26.425 142.407 26.5382 142.609 26.7396C142.81 26.941 142.923 27.2142 142.923 27.499Z" fill="white"/>
<path d="M149.74 27.5049C149.739 27.7174 149.674 27.9246 149.555 28.1006C149.436 28.2766 149.268 28.4133 149.071 28.4935C148.875 28.5736 148.658 28.5937 148.45 28.5511C148.242 28.5085 148.051 28.4051 147.902 28.2541C147.753 28.1031 147.652 27.9111 147.611 27.7026C147.571 27.494 147.593 27.2782 147.676 27.0824C147.758 26.8866 147.897 26.7196 148.074 26.6026C148.251 26.4856 148.459 26.4238 148.672 26.4249C148.813 26.4257 148.952 26.4543 149.082 26.509C149.212 26.5637 149.33 26.6435 149.429 26.7437C149.529 26.844 149.607 26.9629 149.66 27.0935C149.714 27.2241 149.741 27.3639 149.74 27.5049Z" fill="white"/>
<path d="M156.566 27.501C156.566 27.7134 156.503 27.9211 156.385 28.0977C156.267 28.2743 156.099 28.412 155.903 28.4933C155.707 28.5745 155.491 28.5958 155.282 28.5544C155.074 28.5129 154.883 28.4106 154.733 28.2604C154.582 28.1102 154.48 27.9189 154.439 27.7105C154.397 27.5022 154.418 27.2863 154.5 27.09C154.581 26.8938 154.719 26.726 154.895 26.608C155.072 26.49 155.28 26.427 155.492 26.427C155.777 26.427 156.05 26.5402 156.251 26.7416C156.453 26.943 156.566 27.2162 156.566 27.501Z" fill="white"/>
<path d="M163.39 27.512C163.39 27.7244 163.327 27.9321 163.209 28.1087C163.091 28.2853 162.923 28.423 162.727 28.5042C162.531 28.5855 162.315 28.6068 162.107 28.5654C161.898 28.5239 161.707 28.4216 161.557 28.2714C161.407 28.1212 161.304 27.9299 161.263 27.7215C161.221 27.5132 161.243 27.2972 161.324 27.101C161.405 26.9047 161.543 26.737 161.719 26.619C161.896 26.501 162.104 26.438 162.316 26.438C162.601 26.438 162.874 26.5511 163.076 26.7526C163.277 26.954 163.39 27.2272 163.39 27.512Z" fill="white"/>
<path d="M136.035 130.874C136.035 131.086 135.972 131.294 135.854 131.471C135.736 131.647 135.568 131.785 135.372 131.866C135.175 131.948 134.96 131.969 134.751 131.927C134.543 131.886 134.351 131.784 134.201 131.633C134.051 131.483 133.949 131.292 133.907 131.084C133.866 130.875 133.887 130.659 133.968 130.463C134.05 130.267 134.187 130.099 134.364 129.981C134.541 129.863 134.748 129.8 134.961 129.8C135.246 129.8 135.519 129.913 135.72 130.115C135.922 130.316 136.035 130.589 136.035 130.874Z" fill="#C7C7C7"/>
<path d="M142.878 130.876C142.878 131.088 142.815 131.296 142.697 131.473C142.579 131.649 142.412 131.787 142.215 131.868C142.019 131.95 141.803 131.971 141.595 131.929C141.387 131.888 141.195 131.786 141.045 131.635C140.895 131.485 140.793 131.294 140.751 131.086C140.71 130.877 140.731 130.661 140.812 130.465C140.894 130.269 141.031 130.101 141.208 129.983C141.384 129.865 141.592 129.802 141.804 129.802C141.946 129.802 142.085 129.83 142.215 129.884C142.346 129.938 142.464 130.017 142.564 130.117C142.664 130.216 142.743 130.335 142.797 130.465C142.851 130.595 142.878 130.735 142.878 130.876Z" fill="#C7C7C7"/>
<path d="M149.697 130.886C149.695 131.133 149.608 131.372 149.451 131.562C149.293 131.752 149.075 131.882 148.832 131.929C148.59 131.976 148.338 131.937 148.121 131.82C147.904 131.703 147.734 131.514 147.64 131.285C147.547 131.057 147.535 130.803 147.608 130.567C147.68 130.331 147.832 130.127 148.038 129.991C148.244 129.854 148.49 129.793 148.736 129.818C148.982 129.843 149.211 129.952 149.386 130.127C149.586 130.329 149.697 130.602 149.697 130.886Z" fill="#C7C7C7"/>
<path d="M156.521 130.886C156.521 131.098 156.458 131.306 156.34 131.483C156.222 131.659 156.054 131.797 155.858 131.878C155.662 131.96 155.446 131.981 155.238 131.939C155.029 131.898 154.838 131.796 154.688 131.645C154.537 131.495 154.435 131.304 154.394 131.096C154.352 130.887 154.373 130.671 154.455 130.475C154.536 130.279 154.674 130.111 154.85 129.993C155.027 129.875 155.235 129.812 155.447 129.812C155.732 129.812 156.005 129.925 156.206 130.127C156.408 130.328 156.521 130.601 156.521 130.886Z" fill="#C7C7C7"/>
<path d="M163.345 130.893C163.345 131.105 163.282 131.313 163.164 131.49C163.046 131.666 162.879 131.804 162.682 131.885C162.486 131.966 162.27 131.988 162.062 131.946C161.853 131.905 161.662 131.803 161.512 131.652C161.362 131.502 161.259 131.311 161.218 131.102C161.176 130.894 161.198 130.678 161.279 130.482C161.36 130.286 161.498 130.118 161.675 130C161.851 129.882 162.059 129.819 162.271 129.819C162.556 129.819 162.829 129.932 163.031 130.134C163.232 130.335 163.345 130.608 163.345 130.893Z" fill="#C7C7C7"/>
<path d="M161.595 145.393L135.65 145.368L134.438 135.782L162.822 135.801L161.595 145.393Z" fill="#B48CFC"/>
<path opacity="0.1" d="M162.822 135.808L162.222 140.471L134.906 139.447L134.445 135.782L162.822 135.808Z" fill="black"/>
<path opacity="0.6" d="M89.4159 192.09C89.4159 192.996 89.1472 193.882 88.6439 194.635C88.1405 195.388 87.425 195.976 86.588 196.322C85.7509 196.669 84.8298 196.76 83.9412 196.583C83.0526 196.406 82.2363 195.97 81.5956 195.329C80.955 194.689 80.5187 193.872 80.3419 192.984C80.1652 192.095 80.2559 191.174 80.6026 190.337C80.9493 189.5 81.5365 188.784 82.2898 188.281C83.0432 187.778 83.9289 187.509 84.8349 187.509C86.0499 187.509 87.2151 187.992 88.0742 188.851C88.9333 189.71 89.4159 190.875 89.4159 192.09Z" fill="#B48CFC"/>
<path opacity="0.6" d="M92.7525 185.563C93.9846 185.563 94.9835 184.564 94.9835 183.332C94.9835 182.1 93.9846 181.101 92.7525 181.101C91.5203 181.101 90.5215 182.1 90.5215 183.332C90.5215 184.564 91.5203 185.563 92.7525 185.563Z" fill="#B48CFC"/>
<path opacity="0.6" d="M192.966 189.866C192.965 190.382 192.784 190.882 192.456 191.28C192.128 191.678 191.671 191.95 191.165 192.049C190.659 192.149 190.133 192.07 189.679 191.825C189.224 191.581 188.868 191.187 188.672 190.71C188.475 190.232 188.45 189.702 188.601 189.208C188.752 188.715 189.069 188.289 189.499 188.003C189.928 187.717 190.444 187.589 190.957 187.64C191.471 187.692 191.951 187.92 192.315 188.285C192.522 188.493 192.686 188.739 192.798 189.011C192.91 189.282 192.967 189.573 192.966 189.866Z" fill="#B48CFC"/>
<path opacity="0.6" d="M237.667 210.238C237.667 210.679 237.536 211.11 237.291 211.477C237.046 211.844 236.698 212.13 236.29 212.298C235.883 212.467 235.435 212.511 235.002 212.425C234.569 212.339 234.172 212.127 233.86 211.815C233.548 211.503 233.336 211.106 233.25 210.673C233.164 210.241 233.208 209.792 233.377 209.385C233.546 208.977 233.831 208.629 234.198 208.384C234.565 208.139 234.996 208.008 235.437 208.008C236.028 208.008 236.595 208.243 237.014 208.661C237.432 209.08 237.667 209.647 237.667 210.238Z" fill="#B48CFC"/>
<path opacity="0.6" d="M234.247 216.764C234.247 217.114 234.179 217.46 234.044 217.783C233.91 218.107 233.714 218.4 233.466 218.647C233.219 218.894 232.925 219.09 232.601 219.223C232.278 219.357 231.931 219.425 231.582 219.424H65.6385C64.933 219.424 64.2565 219.144 63.7576 218.645C63.2588 218.146 62.9785 217.47 62.9785 216.764C62.9785 216.059 63.2588 215.382 63.7576 214.883C64.2565 214.384 64.933 214.104 65.6385 214.104C65.8515 214.104 66.0637 214.129 66.2705 214.18C66.2687 213.136 66.5784 212.116 67.1598 211.249C67.7413 210.382 68.5681 209.709 69.5346 209.314C70.501 208.92 71.5631 208.823 72.5849 209.036C73.6067 209.249 74.5418 209.762 75.2705 210.509H75.3215C75.3215 210.187 75.2705 209.877 75.2705 209.53C75.2705 208.229 75.5268 206.941 76.0247 205.738C76.5226 204.536 77.2525 203.444 78.1725 202.524C79.0925 201.604 80.1848 200.874 81.3869 200.376C82.589 199.878 83.8774 199.622 85.1785 199.622C86.6904 199.618 88.1828 199.964 89.5385 200.633C89.6337 199.023 90.2766 197.493 91.3605 196.299C92.4445 195.104 93.9043 194.316 95.4978 194.065C97.0914 193.814 98.7227 194.116 100.121 194.92C101.52 195.724 102.601 196.982 103.187 198.485C104.256 196.797 105.81 195.471 107.646 194.682C109.481 193.893 111.513 193.677 113.474 194.062C113.336 193.299 113.269 192.525 113.274 191.749C113.27 189.183 114.002 186.669 115.384 184.507C116.766 182.345 118.739 180.625 121.07 179.551C123.401 178.477 125.991 178.094 128.532 178.448C131.074 178.803 133.46 179.879 135.409 181.549C135.633 181.116 135.972 180.752 136.388 180.498C136.805 180.244 137.284 180.109 137.772 180.108C138.123 180.108 138.47 180.176 138.796 180.308L141.299 145.331H155.921L158.411 180.286C158.728 180.157 159.068 180.089 159.411 180.086C159.899 180.087 160.377 180.222 160.794 180.476C161.21 180.73 161.549 181.094 161.774 181.527C163.869 179.722 166.47 178.609 169.223 178.341C171.975 178.072 174.743 178.661 177.147 180.027C179.552 181.393 181.475 183.469 182.654 185.97C183.832 188.472 184.209 191.276 183.732 194C184.357 193.877 184.994 193.816 185.632 193.817C187.308 193.814 188.958 194.238 190.426 195.049C191.894 195.859 193.131 197.029 194.023 198.449C194.608 196.946 195.689 195.688 197.088 194.884C198.486 194.08 200.118 193.778 201.711 194.029C203.305 194.28 204.765 195.068 205.848 196.263C206.932 197.457 207.575 198.987 207.671 200.597C209.026 199.928 210.519 199.582 212.031 199.586C213.336 199.582 214.629 199.836 215.836 200.333C217.043 200.83 218.14 201.561 219.063 202.484C219.987 203.406 220.719 204.502 221.218 205.708C221.717 206.915 221.972 208.208 221.97 209.513C221.977 209.84 221.96 210.167 221.919 210.492H221.97C222.702 209.749 223.639 209.242 224.662 209.035C225.684 208.828 226.745 208.93 227.709 209.329C228.673 209.728 229.496 210.405 230.073 211.274C230.65 212.143 230.955 213.164 230.949 214.207C231.155 214.156 231.368 214.131 231.581 214.131C232.282 214.131 232.956 214.408 233.455 214.901C233.954 215.394 234.239 216.064 234.247 216.766V216.764Z" fill="#B48CFC"/>
<path d="M192.172 194.858L188.722 195.496L187.951 199.136L187.18 195.496L183.73 194.858L187.161 194.018L187.951 190.581L188.734 194.018L192.172 194.858Z" fill="#FDFDFD"/>
<path d="M158.608 165.684L155.158 166.322L154.387 169.962L153.61 166.322L150.16 165.684L153.597 164.844L154.387 161.407L155.171 164.844L158.608 165.684Z" fill="#FDFDFD"/>
<path d="M108.455 201.783L106.521 202.143L106.091 204.178L105.661 202.143L103.734 201.783L105.655 201.315L106.091 199.394L106.533 201.315L108.455 201.783Z" fill="#FDFDFD"/>
<path d="M212.239 207.848L210.305 208.208L209.875 210.236L209.445 208.208L207.518 207.848L209.439 207.38L209.875 205.459L210.317 207.38L212.239 207.848Z" fill="#FDFDFD"/>
<path d="M81.9104 214.977L79.9765 215.331L79.5464 217.366L79.1165 215.331L77.1895 214.977L79.1104 214.509L79.5464 212.588L79.9825 214.509L81.9104 214.977Z" fill="#FDFDFD"/>
<path d="M165.81 213.283L163.883 213.643L163.453 215.671L163.017 213.643L161.09 213.283L163.011 212.815L163.453 210.894L163.889 212.815L165.81 213.283Z" fill="#FDFDFD"/>
<path d="M151.688 160.155L149.761 160.509L149.331 162.544L148.901 160.509L146.967 160.149L148.888 159.681L149.33 157.76L149.766 159.681L151.688 160.155Z" fill="#FDFDFD"/>
<path d="M216.802 212.247C216.689 212.234 216.574 212.256 216.474 212.31C216.374 212.364 216.292 212.447 216.24 212.548C216.188 212.649 216.168 212.764 216.182 212.877C216.197 212.99 216.245 213.095 216.321 213.18C216.397 213.265 216.496 213.325 216.607 213.352C216.718 213.379 216.834 213.371 216.94 213.331C217.046 213.29 217.138 213.218 217.202 213.124C217.267 213.031 217.302 212.92 217.302 212.806C217.302 212.668 217.251 212.534 217.159 212.431C217.066 212.328 216.939 212.262 216.802 212.247Z" fill="#FDFDFD"/>
<path d="M144.251 153.097C144.138 153.085 144.024 153.107 143.923 153.16C143.823 153.214 143.741 153.297 143.689 153.398C143.637 153.499 143.617 153.614 143.631 153.727C143.646 153.84 143.694 153.945 143.77 154.03C143.846 154.115 143.946 154.175 144.056 154.202C144.167 154.229 144.283 154.221 144.389 154.181C144.496 154.14 144.587 154.068 144.652 153.975C144.716 153.881 144.751 153.77 144.751 153.656C144.751 153.518 144.7 153.384 144.608 153.281C144.516 153.178 144.389 153.112 144.251 153.097Z" fill="#FDFDFD"/>
<path d="M96.5185 214.976C96.4054 214.963 96.2912 214.985 96.1909 215.039C96.0907 215.093 96.0091 215.176 95.9569 215.277C95.9048 215.378 95.8846 215.493 95.8991 215.606C95.9135 215.719 95.9618 215.824 96.0376 215.909C96.1135 215.994 96.2133 216.054 96.3239 216.081C96.4344 216.107 96.5506 216.1 96.6569 216.06C96.7632 216.019 96.8547 215.947 96.9192 215.853C96.9838 215.76 97.0184 215.649 97.0185 215.535C97.0186 215.397 96.9677 215.263 96.8754 215.16C96.7831 215.057 96.6561 214.991 96.5185 214.976Z" fill="#FDFDFD"/>
<path d="M131.96 207.293C131.847 207.28 131.733 207.303 131.632 207.356C131.532 207.41 131.45 207.493 131.398 207.594C131.346 207.695 131.326 207.81 131.34 207.923C131.355 208.036 131.403 208.141 131.479 208.226C131.555 208.311 131.655 208.371 131.765 208.398C131.876 208.425 131.992 208.417 132.098 208.377C132.205 208.336 132.296 208.264 132.361 208.171C132.425 208.077 132.46 207.966 132.46 207.852C132.46 207.714 132.409 207.58 132.317 207.477C132.225 207.374 132.097 207.308 131.96 207.293Z" fill="#FDFDFD"/>
<path d="M202.794 202.2C202.713 202.189 202.631 202.204 202.559 202.241C202.486 202.278 202.427 202.337 202.389 202.409C202.35 202.48 202.335 202.562 202.345 202.643C202.354 202.724 202.388 202.8 202.442 202.861C202.495 202.922 202.567 202.965 202.646 202.985C202.725 203.004 202.808 203 202.884 202.971C202.96 202.942 203.025 202.89 203.072 202.823C203.118 202.756 203.142 202.676 203.142 202.595C203.141 202.498 203.106 202.405 203.042 202.332C202.978 202.26 202.89 202.213 202.794 202.2Z" fill="#FDFDFD"/>
<path d="M153.918 196.26C153.838 196.26 153.761 196.283 153.695 196.327C153.63 196.371 153.578 196.434 153.548 196.507C153.518 196.58 153.51 196.66 153.525 196.738C153.541 196.816 153.579 196.887 153.635 196.943C153.691 196.999 153.762 197.037 153.84 197.052C153.917 197.068 153.998 197.06 154.071 197.03C154.144 196.999 154.206 196.948 154.25 196.882C154.294 196.816 154.318 196.739 154.318 196.66C154.318 196.554 154.275 196.452 154.2 196.377C154.125 196.302 154.024 196.26 153.918 196.26Z" fill="#FDFDFD"/>
<path d="M118.141 188.532C118.061 188.521 117.979 188.536 117.906 188.573C117.834 188.61 117.775 188.669 117.736 188.741C117.698 188.812 117.683 188.894 117.692 188.975C117.702 189.056 117.735 189.132 117.789 189.193C117.843 189.254 117.914 189.297 117.993 189.317C118.072 189.336 118.155 189.331 118.232 189.302C118.308 189.274 118.373 189.222 118.419 189.155C118.465 189.088 118.49 189.008 118.489 188.927C118.489 188.83 118.454 188.737 118.39 188.664C118.326 188.592 118.237 188.545 118.141 188.532Z" fill="#FDFDFD"/>
<path d="M179.351 190.144C179.139 190.144 178.931 190.208 178.755 190.326C178.579 190.444 178.441 190.612 178.36 190.808C178.279 191.005 178.259 191.221 178.3 191.429C178.342 191.637 178.444 191.828 178.595 191.978C178.745 192.128 178.936 192.23 179.144 192.272C179.353 192.313 179.569 192.291 179.765 192.21C179.961 192.129 180.128 191.991 180.246 191.815C180.364 191.638 180.427 191.43 180.427 191.218C180.427 191.077 180.399 190.937 180.345 190.807C180.291 190.676 180.212 190.558 180.112 190.458C180.012 190.358 179.893 190.279 179.763 190.225C179.632 190.171 179.493 190.144 179.351 190.144Z" fill="#FDFDFD"/>
<path d="M123.203 184.893C122.99 184.893 122.783 184.956 122.606 185.074C122.43 185.192 122.292 185.36 122.211 185.556C122.129 185.752 122.108 185.968 122.15 186.176C122.191 186.385 122.293 186.576 122.443 186.726C122.594 186.877 122.785 186.979 122.993 187.02C123.202 187.062 123.418 187.04 123.614 186.959C123.81 186.878 123.978 186.74 124.096 186.564C124.214 186.387 124.277 186.179 124.277 185.967C124.277 185.682 124.164 185.409 123.962 185.208C123.761 185.006 123.488 184.893 123.203 184.893Z" fill="#FDFDFD"/>
</svg>
