<svg width="49" height="49" viewBox="0 0 49 49" fill="none" xmlns="http://www.w3.org/2000/svg">
<path d="M24.5 49C38.031 49 49 38.031 49 24.5C49 10.969 38.031 0 24.5 0C10.969 0 0 10.969 0 24.5C0 38.031 10.969 49 24.5 49Z" fill="#FFE7EC"/>
<path d="M15.9748 35.3206C15.9754 35.6731 16.0507 36.0221 16.1964 36.3475C16.3421 36.673 16.5554 36.9685 16.824 37.2173C17.0927 37.4662 17.4115 37.6634 17.7622 37.7976C18.1129 37.9319 18.4886 38.0007 18.8679 38H31.1335C31.5128 38.0007 31.8885 37.9319 32.2392 37.7976C32.5899 37.6634 32.9087 37.4662 33.1774 37.2173C33.4461 36.9685 33.6593 36.673 33.805 36.3475C33.9508 36.0221 34.0261 35.6731 34.0266 35.3206V19.2128H15.9748V35.3206ZM21.5248 25.726C21.4407 25.6479 21.374 25.5551 21.3285 25.453C21.283 25.3509 21.2596 25.2414 21.2596 25.1309C21.2596 25.0204 21.283 24.911 21.3285 24.8088C21.374 24.7067 21.4407 24.614 21.5248 24.5358C21.6089 24.4577 21.7088 24.3957 21.8186 24.3534C21.9285 24.3111 22.0463 24.2893 22.1652 24.2893C22.2842 24.2893 22.4019 24.3111 22.5118 24.3534C22.6217 24.3957 22.7215 24.4577 22.8056 24.5358L25.0028 26.5777L27.2001 24.5358C27.3699 24.378 27.6003 24.2893 27.8405 24.2893C28.0807 24.2893 28.311 24.378 28.4809 24.5358C28.6507 24.6936 28.7461 24.9077 28.7461 25.1309C28.7461 25.3541 28.6507 25.5682 28.4809 25.726L26.2836 27.768L28.4809 29.8099C28.6507 29.9677 28.7461 30.1818 28.7461 30.405C28.7461 30.6282 28.6507 30.8423 28.4809 31.0001C28.311 31.1579 28.0807 31.2466 27.8405 31.2466C27.6003 31.2466 27.3699 31.1579 27.2001 31.0001L25 28.9542L22.8028 30.9961C22.6329 31.154 22.4026 31.2426 22.1624 31.2426C21.9222 31.2426 21.6918 31.154 21.522 30.9961C21.3521 30.8383 21.2567 30.6242 21.2567 30.401C21.2567 30.1778 21.3521 29.9637 21.522 29.8059L23.7192 27.764L21.5248 25.726ZM34.0978 15.8577H29.3632V14.2178C29.3617 13.63 29.1097 13.0667 28.6625 12.6511C28.2153 12.2355 27.6091 12.0014 26.9767 12H23.0233C22.3906 12.001 21.7841 12.235 21.3366 12.6507C20.889 13.0663 20.6369 13.6298 20.6354 14.2178V15.8577H15.9022C15.6629 15.8577 15.4335 15.946 15.2643 16.1033C15.0951 16.2605 15 16.4738 15 16.6961C15 16.9185 15.0951 17.1318 15.2643 17.289C15.4335 17.4463 15.6629 17.5346 15.9022 17.5346H34.0978C34.3371 17.5346 34.5665 17.4463 34.7357 17.289C34.9049 17.1318 35 16.9185 35 16.6961C35 16.4738 34.9049 16.2605 34.7357 16.1033C34.5665 15.946 34.3371 15.8577 34.0978 15.8577ZM27.5587 15.8577H22.4356V14.2178C22.4356 14.0743 22.4969 13.9368 22.6061 13.8353C22.7152 13.7339 22.8633 13.6769 23.0176 13.6769H26.971C27.1253 13.6769 27.2734 13.7339 27.3825 13.8353C27.4917 13.9368 27.553 14.0743 27.553 14.2178L27.5587 15.8577Z" fill="#E31C4C"/>
</svg>
